<svg width="564" height="220" viewBox="0 0 564 220" fill="none" xmlns="http://www.w3.org/2000/svg">
<circle cx="93.5" cy="109.5" r="93.5" fill="#E53D00"/>
<rect x="43" y="88" width="100" height="78" rx="39" fill="white"/>
<rect x="43" y="53" width="40" height="66" rx="20" fill="white"/>
<rect x="103" y="53" width="40" height="66" rx="20" fill="white"/>
<rect x="43" y="93" width="100" height="34" fill="white"/>
<circle cx="93" cy="88" r="10" fill="#E53D00"/>
<circle cx="71" cy="119" r="10" fill="black"/>
<circle cx="115" cy="119" r="10" fill="black"/>
<path d="M241.305 48.0195H338.248V66.4766H259.85V154.455H338.248V173H241.305V48.0195ZM270.396 98.7324H338.248V117.189H270.396V98.7324ZM352.398 48.0195H454.176V66.4766H412.604V173H393.971V66.4766H352.398V48.0195ZM491.881 48.0195H514.996L559.732 173H539.957L526.334 135.383H491.441L498.121 116.926H519.654L503.482 72.2773L466.92 173H447.145L491.881 48.0195Z" fill="#E53D00"/>
</svg>
