<svg width="3840" height="2163" viewBox="0 0 3840 2163" fill="none" xmlns="http://www.w3.org/2000/svg">
<g clip-path="url(#clip0_17_111)">
<rect width="3840" height="2160" fill="#E53D00"/>
<path d="M-136.346 699.131C-93.2054 467.41 -71.6354 351.55 13.7529 292.965C99.1412 234.381 215.002 255.951 446.722 299.091L2785.09 734.432C3016.81 777.572 3132.67 799.142 3191.26 884.53C3249.84 969.918 3228.27 1085.78 3185.13 1317.5L3144.76 1534.35L-176.718 915.984L-136.346 699.131Z" fill="white"/>
<path d="M-292.113 1488.75L3029.36 2107.11L2988.99 2323.97C2945.85 2555.69 2924.28 2671.55 2838.89 2730.13C2753.5 2788.72 2637.64 2767.15 2405.92 2724.01L67.5543 2288.67C-164.166 2245.53 -280.027 2223.96 -338.611 2138.57C-397.196 2053.18 -375.626 1937.32 -332.485 1705.6L-292.113 1488.75Z" fill="white"/>
<rect x="-193.096" y="956.889" width="3378.55" height="498.345" rx="140" transform="rotate(10.5462 -193.096 956.889)" fill="white"/>
</g>
<defs>
<clipPath id="clip0_17_111">
<rect width="3840" height="2162.85" fill="white"/>
</clipPath>
</defs>
</svg>
