<svg width="3840" height="2163" viewBox="0 0 3840 2163" fill="none" xmlns="http://www.w3.org/2000/svg">
<g clip-path="url(#clip0_17_111)">
<rect width="3840" height="2160" fill="#E53D00"/>
<path d="M1077.28 415.672C1057.15 180.831 1047.09 63.4101 1113.79 -15.7984C1180.5 -95.0068 1297.92 -105.07 1532.76 -125.197L3902.62 -328.304C4137.46 -348.431 4254.88 -358.495 4334.09 -291.791C4413.3 -225.088 4423.36 -107.668 4443.49 127.174L4462.32 346.947L1096.12 635.446L1077.28 415.672Z" fill="white"/>
<path d="M1137.42 1218.25L4503.62 929.757L4522.46 1149.53C4542.59 1384.37 4552.65 1501.79 4485.95 1581C4419.24 1660.21 4301.82 1670.27 4066.98 1690.4L1697.12 1893.51C1462.28 1913.63 1344.86 1923.7 1265.65 1856.99C1186.44 1790.29 1176.38 1672.87 1156.25 1438.03L1137.42 1218.25Z" fill="white"/>
<rect x="1091.22" y="679.235" width="3378.55" height="498.345" rx="140" transform="rotate(-4.89853 1091.22 679.235)" fill="white"/>
</g>
<defs>
<clipPath id="clip0_17_111">
<rect width="3840" height="2162.85" fill="white"/>
</clipPath>
</defs>
</svg>
