<svg width="3840" height="2163" viewBox="0 0 3840 2163" fill="none" xmlns="http://www.w3.org/2000/svg">
<g clip-path="url(#clip0_17_111)">
<rect width="3840" height="2160" fill="#E53D00"/>
<path d="M919.131 -3.7203C1030.01 -211.717 1085.44 -315.715 1184.5 -345.887C1283.56 -376.059 1387.56 -320.622 1595.56 -209.749L3694.52 909.114C3902.51 1019.99 4006.51 1075.43 4036.68 1174.49C4066.86 1273.55 4011.42 1377.54 3900.54 1585.54L3796.78 1780.19L815.371 190.931L919.131 -3.7203Z" fill="white"/>
<path d="M532.959 702.415L3514.37 2291.68L3410.61 2486.33C3299.74 2694.32 3244.3 2798.32 3145.24 2828.49C3046.18 2858.67 2942.18 2803.23 2734.19 2692.36L635.228 1573.49C427.231 1462.62 323.233 1407.18 293.061 1308.12C262.889 1209.06 318.325 1105.06 429.199 897.066L532.959 702.415Z" fill="white"/>
<rect x="787.442" y="225.011" width="3378.55" height="498.345" rx="140" transform="rotate(28.0601 787.442 225.011)" fill="white"/>
</g>
<defs>
<clipPath id="clip0_17_111">
<rect width="3840" height="2162.85" fill="white"/>
</clipPath>
</defs>
</svg>
