<svg width="3840" height="2160" viewBox="0 0 3840 2160" fill="none" xmlns="http://www.w3.org/2000/svg">
<path d="M1190 882C1190 816.001 1190 783.002 1196.19 755.698C1217.49 661.808 1290.81 588.49 1384.7 567.193C1412 561 1445 561 1511 561H2330C2396 561 2429 561 2456.3 567.193C2550.19 588.49 2623.51 661.808 2644.81 755.698C2651 783.002 2651 816.001 2651 882V882H1190V882Z" fill="#D08000"/>
<path d="M1190 1209H2651V1209C2651 1275 2651 1308 2644.81 1335.3C2623.51 1429.19 2550.19 1502.51 2456.3 1523.81C2429 1530 2396 1530 2330 1530H1511C1445 1530 1412 1530 1384.7 1523.81C1290.81 1502.51 1217.49 1429.19 1196.19 1335.3C1190 1308 1190 1275 1190 1209V1209Z" fill="#D08000"/>
<rect x="1190" y="968" width="1461" height="222" rx="111" fill="#5A3F00"/>
<rect x="1282" y="904" width="1276" height="44" rx="22" fill="#5E8A49"/>
<rect x="1282" y="904" width="1276" height="44" rx="22" fill="#5E8A49"/>
<path d="M1371.27 1748V1654.91H1402.73C1410.03 1654.91 1416 1656.23 1420.64 1658.86C1425.3 1661.47 1428.76 1665 1431 1669.45C1433.24 1673.91 1434.36 1678.88 1434.36 1684.36C1434.36 1689.85 1433.24 1694.83 1431 1699.32C1428.79 1703.8 1425.36 1707.38 1420.73 1710.05C1416.09 1712.68 1410.15 1714 1402.91 1714H1380.36V1704H1402.55C1407.55 1704 1411.56 1703.14 1414.59 1701.41C1417.62 1699.68 1419.82 1697.35 1421.18 1694.41C1422.58 1691.44 1423.27 1688.09 1423.27 1684.36C1423.27 1680.64 1422.58 1677.3 1421.18 1674.36C1419.82 1671.42 1417.61 1669.12 1414.55 1667.45C1411.48 1665.76 1407.42 1664.91 1402.36 1664.91H1382.55V1748H1371.27ZM1461.8 1654.91V1748H1451.07V1654.91H1461.8ZM1501.99 1749.64C1497.56 1749.64 1493.55 1748.8 1489.94 1747.14C1486.34 1745.44 1483.47 1743 1481.35 1739.82C1479.23 1736.61 1478.17 1732.73 1478.17 1728.18C1478.17 1724.18 1478.96 1720.94 1480.53 1718.45C1482.11 1715.94 1484.22 1713.97 1486.85 1712.55C1489.49 1711.12 1492.4 1710.06 1495.58 1709.36C1498.79 1708.64 1502.02 1708.06 1505.26 1707.64C1509.5 1707.09 1512.94 1706.68 1515.58 1706.41C1518.25 1706.11 1520.19 1705.61 1521.4 1704.91C1522.64 1704.21 1523.26 1703 1523.26 1701.27V1700.91C1523.26 1696.42 1522.03 1692.94 1519.58 1690.45C1517.16 1687.97 1513.47 1686.73 1508.53 1686.73C1503.41 1686.73 1499.4 1687.85 1496.49 1690.09C1493.58 1692.33 1491.53 1694.73 1490.35 1697.27L1480.17 1693.64C1481.99 1689.39 1484.41 1686.09 1487.44 1683.73C1490.5 1681.33 1493.84 1679.67 1497.44 1678.73C1501.08 1677.76 1504.66 1677.27 1508.17 1677.27C1510.41 1677.27 1512.99 1677.55 1515.9 1678.09C1518.84 1678.61 1521.67 1679.68 1524.4 1681.32C1527.16 1682.95 1529.44 1685.42 1531.26 1688.73C1533.08 1692.03 1533.99 1696.45 1533.99 1702V1748H1523.26V1738.55H1522.72C1521.99 1740.06 1520.78 1741.68 1519.08 1743.41C1517.38 1745.14 1515.13 1746.61 1512.31 1747.82C1509.49 1749.03 1506.05 1749.64 1501.99 1749.64ZM1503.62 1740C1507.87 1740 1511.44 1739.17 1514.35 1737.5C1517.29 1735.83 1519.5 1733.68 1520.99 1731.05C1522.5 1728.41 1523.26 1725.64 1523.26 1722.73V1712.91C1522.81 1713.45 1521.81 1713.95 1520.26 1714.41C1518.75 1714.83 1516.99 1715.21 1514.99 1715.55C1513.02 1715.85 1511.09 1716.12 1509.22 1716.36C1507.37 1716.58 1505.87 1716.76 1504.72 1716.91C1501.93 1717.27 1499.32 1717.86 1496.9 1718.68C1494.5 1719.47 1492.56 1720.67 1491.08 1722.27C1489.63 1723.85 1488.9 1726 1488.9 1728.73C1488.9 1732.45 1490.28 1735.27 1493.03 1737.18C1495.82 1739.06 1499.35 1740 1503.62 1740ZM1581.93 1749.45C1575.39 1749.45 1569.75 1747.91 1565.02 1744.82C1560.3 1741.73 1556.66 1737.47 1554.11 1732.05C1551.57 1726.62 1550.3 1720.42 1550.3 1713.45C1550.3 1706.36 1551.6 1700.11 1554.2 1694.68C1556.84 1689.23 1560.51 1684.97 1565.2 1681.91C1569.93 1678.82 1575.45 1677.27 1581.75 1677.27C1586.66 1677.27 1591.08 1678.18 1595.02 1680C1598.96 1681.82 1602.19 1684.36 1604.7 1687.64C1607.22 1690.91 1608.78 1694.73 1609.39 1699.09H1598.66C1597.84 1695.91 1596.02 1693.09 1593.2 1690.64C1590.42 1688.15 1586.66 1686.91 1581.93 1686.91C1577.75 1686.91 1574.08 1688 1570.93 1690.18C1567.81 1692.33 1565.37 1695.38 1563.61 1699.32C1561.89 1703.23 1561.02 1707.82 1561.02 1713.09C1561.02 1718.48 1561.87 1723.18 1563.57 1727.18C1565.3 1731.18 1567.72 1734.29 1570.84 1736.5C1573.99 1738.71 1577.69 1739.82 1581.93 1739.82C1584.72 1739.82 1587.25 1739.33 1589.52 1738.36C1591.8 1737.39 1593.72 1736 1595.3 1734.18C1596.87 1732.36 1597.99 1730.18 1598.66 1727.64H1609.39C1608.78 1731.76 1607.28 1735.47 1604.89 1738.77C1602.52 1742.05 1599.39 1744.65 1595.48 1746.59C1591.6 1748.5 1587.08 1749.45 1581.93 1749.45ZM1654.34 1749.45C1647.61 1749.45 1641.81 1747.97 1636.93 1745C1632.08 1742 1628.34 1737.82 1625.7 1732.45C1623.1 1727.06 1621.8 1720.79 1621.8 1713.64C1621.8 1706.48 1623.1 1700.18 1625.7 1694.73C1628.34 1689.24 1632.01 1684.97 1636.7 1681.91C1641.43 1678.82 1646.95 1677.27 1653.25 1677.27C1656.89 1677.27 1660.48 1677.88 1664.02 1679.09C1667.57 1680.3 1670.8 1682.27 1673.7 1685C1676.61 1687.7 1678.93 1691.27 1680.66 1695.73C1682.39 1700.18 1683.25 1705.67 1683.25 1712.18V1716.73H1629.43V1707.45H1672.34C1672.34 1703.52 1671.55 1700 1669.98 1696.91C1668.43 1693.82 1666.22 1691.38 1663.34 1689.59C1660.49 1687.8 1657.13 1686.91 1653.25 1686.91C1648.98 1686.91 1645.28 1687.97 1642.16 1690.09C1639.07 1692.18 1636.69 1694.91 1635.02 1698.27C1633.36 1701.64 1632.52 1705.24 1632.52 1709.09V1715.27C1632.52 1720.55 1633.43 1725.02 1635.25 1728.68C1637.1 1732.32 1639.66 1735.09 1642.93 1737C1646.2 1738.88 1650.01 1739.82 1654.34 1739.82C1657.16 1739.82 1659.7 1739.42 1661.98 1738.64C1664.28 1737.82 1666.27 1736.61 1667.93 1735C1669.6 1733.36 1670.89 1731.33 1671.8 1728.91L1682.16 1731.82C1681.07 1735.33 1679.23 1738.42 1676.66 1741.09C1674.08 1743.73 1670.9 1745.79 1667.11 1747.27C1663.33 1748.73 1659.07 1749.45 1654.34 1749.45ZM1710.3 1706V1748H1699.57V1654.91H1710.3V1689.09H1711.2C1712.84 1685.48 1715.3 1682.62 1718.57 1680.5C1721.87 1678.35 1726.27 1677.27 1731.75 1677.27C1736.51 1677.27 1740.67 1678.23 1744.25 1680.14C1747.83 1682.02 1750.6 1684.91 1752.57 1688.82C1754.57 1692.7 1755.57 1697.64 1755.57 1703.64V1748H1744.84V1704.36C1744.84 1698.82 1743.4 1694.53 1740.52 1691.5C1737.67 1688.44 1733.72 1686.91 1728.66 1686.91C1725.14 1686.91 1721.99 1687.65 1719.2 1689.14C1716.45 1690.62 1714.27 1692.79 1712.66 1695.64C1711.08 1698.48 1710.3 1701.94 1710.3 1706ZM1803.56 1749.45C1797.25 1749.45 1791.72 1747.95 1786.97 1744.95C1782.24 1741.95 1778.54 1737.76 1775.88 1732.36C1773.24 1726.97 1771.92 1720.67 1771.92 1713.45C1771.92 1706.18 1773.24 1699.83 1775.88 1694.41C1778.54 1688.98 1782.24 1684.77 1786.97 1681.77C1791.72 1678.77 1797.25 1677.27 1803.56 1677.27C1809.86 1677.27 1815.38 1678.77 1820.1 1681.77C1824.86 1684.77 1828.56 1688.98 1831.19 1694.41C1833.86 1699.83 1835.19 1706.18 1835.19 1713.45C1835.19 1720.67 1833.86 1726.97 1831.19 1732.36C1828.56 1737.76 1824.86 1741.95 1820.1 1744.95C1815.38 1747.95 1809.86 1749.45 1803.56 1749.45ZM1803.56 1739.82C1808.34 1739.82 1812.28 1738.59 1815.38 1736.14C1818.47 1733.68 1820.75 1730.45 1822.24 1726.45C1823.72 1722.45 1824.47 1718.12 1824.47 1713.45C1824.47 1708.79 1823.72 1704.44 1822.24 1700.41C1820.75 1696.38 1818.47 1693.12 1815.38 1690.64C1812.28 1688.15 1808.34 1686.91 1803.56 1686.91C1798.77 1686.91 1794.83 1688.15 1791.74 1690.64C1788.65 1693.12 1786.36 1696.38 1784.88 1700.41C1783.39 1704.44 1782.65 1708.79 1782.65 1713.45C1782.65 1718.12 1783.39 1722.45 1784.88 1726.45C1786.36 1730.45 1788.65 1733.68 1791.74 1736.14C1794.83 1738.59 1798.77 1739.82 1803.56 1739.82ZM1862.3 1654.91V1748H1851.57V1654.91H1862.3ZM1908.31 1749.45C1902.49 1749.45 1897.35 1747.98 1892.9 1745.05C1888.44 1742.08 1884.96 1737.89 1882.44 1732.5C1879.93 1727.08 1878.67 1720.67 1878.67 1713.27C1878.67 1705.94 1879.93 1699.58 1882.44 1694.18C1884.96 1688.79 1888.46 1684.62 1892.94 1681.68C1897.43 1678.74 1902.61 1677.27 1908.49 1677.27C1913.03 1677.27 1916.63 1678.03 1919.26 1679.55C1921.93 1681.03 1923.96 1682.73 1925.35 1684.64C1926.78 1686.52 1927.88 1688.06 1928.67 1689.27H1929.58V1654.91H1940.31V1748H1929.94V1737.27H1928.67C1927.88 1738.55 1926.76 1740.15 1925.31 1742.09C1923.85 1744 1921.78 1745.71 1919.08 1747.23C1916.38 1748.71 1912.79 1749.45 1908.31 1749.45ZM1909.76 1739.82C1914.06 1739.82 1917.7 1738.7 1920.67 1736.45C1923.64 1734.18 1925.9 1731.05 1927.44 1727.05C1928.99 1723.02 1929.76 1718.36 1929.76 1713.09C1929.76 1707.88 1929 1703.32 1927.49 1699.41C1925.97 1695.47 1923.73 1692.41 1920.76 1690.23C1917.79 1688.02 1914.13 1686.91 1909.76 1686.91C1905.22 1686.91 1901.43 1688.08 1898.4 1690.41C1895.4 1692.71 1893.14 1695.85 1891.62 1699.82C1890.14 1703.76 1889.4 1708.18 1889.4 1713.09C1889.4 1718.06 1890.16 1722.58 1891.67 1726.64C1893.22 1730.67 1895.49 1733.88 1898.49 1736.27C1901.52 1738.64 1905.28 1739.82 1909.76 1739.82ZM1990.72 1749.45C1983.99 1749.45 1978.19 1747.97 1973.31 1745C1968.46 1742 1964.72 1737.82 1962.08 1732.45C1959.47 1727.06 1958.17 1720.79 1958.17 1713.64C1958.17 1706.48 1959.47 1700.18 1962.08 1694.73C1964.72 1689.24 1968.38 1684.97 1973.08 1681.91C1977.81 1678.82 1983.32 1677.27 1989.62 1677.27C1993.26 1677.27 1996.85 1677.88 2000.4 1679.09C2003.94 1680.3 2007.17 1682.27 2010.08 1685C2012.99 1687.7 2015.31 1691.27 2017.03 1695.73C2018.76 1700.18 2019.62 1705.67 2019.62 1712.18V1716.73H1965.81V1707.45H2008.72C2008.72 1703.52 2007.93 1700 2006.35 1696.91C2004.81 1693.82 2002.59 1691.38 1999.72 1689.59C1996.87 1687.8 1993.5 1686.91 1989.62 1686.91C1985.35 1686.91 1981.66 1687.97 1978.53 1690.09C1975.44 1692.18 1973.06 1694.91 1971.4 1698.27C1969.73 1701.64 1968.9 1705.24 1968.9 1709.09V1715.27C1968.9 1720.55 1969.81 1725.02 1971.62 1728.68C1973.47 1732.32 1976.03 1735.09 1979.31 1737C1982.58 1738.88 1986.38 1739.82 1990.72 1739.82C1993.53 1739.82 1996.08 1739.42 1998.35 1738.64C2000.66 1737.82 2002.64 1736.61 2004.31 1735C2005.97 1733.36 2007.26 1731.33 2008.17 1728.91L2018.53 1731.82C2017.44 1735.33 2015.61 1738.42 2013.03 1741.09C2010.46 1743.73 2007.28 1745.79 2003.49 1747.27C1999.7 1748.73 1995.44 1749.45 1990.72 1749.45ZM2035.94 1748V1678.18H2046.31V1688.73H2047.03C2048.31 1685.27 2050.61 1682.47 2053.94 1680.32C2057.28 1678.17 2061.03 1677.09 2065.22 1677.09C2066 1677.09 2066.99 1677.11 2068.17 1677.14C2069.35 1677.17 2070.25 1677.21 2070.85 1677.27V1688.18C2070.49 1688.09 2069.66 1687.95 2068.35 1687.77C2067.08 1687.56 2065.73 1687.45 2064.31 1687.45C2060.91 1687.45 2057.88 1688.17 2055.22 1689.59C2052.58 1690.98 2050.49 1692.92 2048.94 1695.41C2047.43 1697.86 2046.67 1700.67 2046.67 1703.82V1748H2035.94ZM2132.3 1654.91V1748H2121.02V1654.91H2132.3ZM2153.44 1748V1678.18H2163.81V1689.09H2164.72C2166.17 1685.36 2168.52 1682.47 2171.76 1680.41C2175 1678.32 2178.9 1677.27 2183.44 1677.27C2188.05 1677.27 2191.88 1678.32 2194.94 1680.41C2198.03 1682.47 2200.44 1685.36 2202.17 1689.09H2202.9C2204.69 1685.48 2207.37 1682.62 2210.94 1680.5C2214.52 1678.35 2218.81 1677.27 2223.81 1677.27C2230.05 1677.27 2235.16 1679.23 2239.12 1683.14C2243.09 1687.02 2245.08 1693.06 2245.08 1701.27V1748H2234.35V1701.27C2234.35 1696.12 2232.94 1692.44 2230.12 1690.23C2227.31 1688.02 2223.99 1686.91 2220.17 1686.91C2215.26 1686.91 2211.46 1688.39 2208.76 1691.36C2206.06 1694.3 2204.72 1698.03 2204.72 1702.55V1748H2193.81V1700.18C2193.81 1696.21 2192.52 1693.02 2189.94 1690.59C2187.37 1688.14 2184.05 1686.91 2179.99 1686.91C2177.2 1686.91 2174.59 1687.65 2172.17 1689.14C2169.78 1690.62 2167.84 1692.68 2166.35 1695.32C2164.9 1697.92 2164.17 1700.94 2164.17 1704.36V1748H2153.44ZM2285.24 1749.64C2280.81 1749.64 2276.8 1748.8 2273.19 1747.14C2269.59 1745.44 2266.72 1743 2264.6 1739.82C2262.48 1736.61 2261.42 1732.73 2261.42 1728.18C2261.42 1724.18 2262.21 1720.94 2263.78 1718.45C2265.36 1715.94 2267.47 1713.97 2270.1 1712.55C2272.74 1711.12 2275.65 1710.06 2278.83 1709.36C2282.04 1708.64 2285.27 1708.06 2288.51 1707.64C2292.75 1707.09 2296.19 1706.68 2298.83 1706.41C2301.5 1706.11 2303.44 1705.61 2304.65 1704.91C2305.89 1704.21 2306.51 1703 2306.51 1701.27V1700.91C2306.51 1696.42 2305.28 1692.94 2302.83 1690.45C2300.41 1687.97 2296.72 1686.73 2291.78 1686.73C2286.66 1686.73 2282.65 1687.85 2279.74 1690.09C2276.83 1692.33 2274.78 1694.73 2273.6 1697.27L2263.42 1693.64C2265.24 1689.39 2267.66 1686.09 2270.69 1683.73C2273.75 1681.33 2277.09 1679.67 2280.69 1678.73C2284.33 1677.76 2287.91 1677.27 2291.42 1677.27C2293.66 1677.27 2296.24 1677.55 2299.15 1678.09C2302.09 1678.61 2304.92 1679.68 2307.65 1681.32C2310.41 1682.95 2312.69 1685.42 2314.51 1688.73C2316.33 1692.03 2317.24 1696.45 2317.24 1702V1748H2306.51V1738.55H2305.97C2305.24 1740.06 2304.03 1741.68 2302.33 1743.41C2300.63 1745.14 2298.38 1746.61 2295.56 1747.82C2292.74 1749.03 2289.3 1749.64 2285.24 1749.64ZM2286.88 1740C2291.12 1740 2294.69 1739.17 2297.6 1737.5C2300.54 1735.83 2302.75 1733.68 2304.24 1731.05C2305.75 1728.41 2306.51 1725.64 2306.51 1722.73V1712.91C2306.06 1713.45 2305.06 1713.95 2303.51 1714.41C2302 1714.83 2300.24 1715.21 2298.24 1715.55C2296.27 1715.85 2294.34 1716.12 2292.47 1716.36C2290.62 1716.58 2289.12 1716.76 2287.97 1716.91C2285.18 1717.27 2282.57 1717.86 2280.15 1718.68C2277.75 1719.47 2275.81 1720.67 2274.33 1722.27C2272.88 1723.85 2272.15 1726 2272.15 1728.73C2272.15 1732.45 2273.53 1735.27 2276.28 1737.18C2279.07 1739.06 2282.6 1740 2286.88 1740ZM2365 1775.64C2359.82 1775.64 2355.36 1774.97 2351.64 1773.64C2347.91 1772.33 2344.8 1770.61 2342.32 1768.45C2339.86 1766.33 2337.91 1764.06 2336.45 1761.64L2345 1755.64C2345.97 1756.91 2347.2 1758.36 2348.68 1760C2350.17 1761.67 2352.2 1763.11 2354.77 1764.32C2357.38 1765.56 2360.79 1766.18 2365 1766.18C2370.64 1766.18 2375.29 1764.82 2378.95 1762.09C2382.62 1759.36 2384.45 1755.09 2384.45 1749.27V1735.09H2383.55C2382.76 1736.36 2381.64 1737.94 2380.18 1739.82C2378.76 1741.67 2376.7 1743.32 2374 1744.77C2371.33 1746.2 2367.73 1746.91 2363.18 1746.91C2357.55 1746.91 2352.48 1745.58 2348 1742.91C2343.55 1740.24 2340.02 1736.36 2337.41 1731.27C2334.83 1726.18 2333.55 1720 2333.55 1712.73C2333.55 1705.58 2334.8 1699.35 2337.32 1694.05C2339.83 1688.71 2343.33 1684.59 2347.82 1681.68C2352.3 1678.74 2357.48 1677.27 2363.36 1677.27C2367.91 1677.27 2371.52 1678.03 2374.18 1679.55C2376.88 1681.03 2378.94 1682.73 2380.36 1684.64C2381.82 1686.52 2382.94 1688.06 2383.73 1689.27H2384.82V1678.18H2395.18V1750C2395.18 1756 2393.82 1760.88 2391.09 1764.64C2388.39 1768.42 2384.76 1771.2 2380.18 1772.95C2375.64 1774.74 2370.58 1775.64 2365 1775.64ZM2364.64 1737.27C2368.94 1737.27 2372.58 1736.29 2375.55 1734.32C2378.52 1732.35 2380.77 1729.52 2382.32 1725.82C2383.86 1722.12 2384.64 1717.7 2384.64 1712.55C2384.64 1707.52 2383.88 1703.08 2382.36 1699.23C2380.85 1695.38 2378.61 1692.36 2375.64 1690.18C2372.67 1688 2369 1686.91 2364.64 1686.91C2360.09 1686.91 2356.3 1688.06 2353.27 1690.36C2350.27 1692.67 2348.02 1695.76 2346.5 1699.64C2345.02 1703.52 2344.27 1707.82 2344.27 1712.55C2344.27 1717.39 2345.03 1721.68 2346.55 1725.41C2348.09 1729.11 2350.36 1732.02 2353.36 1734.14C2356.39 1736.23 2360.15 1737.27 2364.64 1737.27ZM2444.09 1749.45C2437.36 1749.45 2431.56 1747.97 2426.68 1745C2421.83 1742 2418.09 1737.82 2415.45 1732.45C2412.85 1727.06 2411.55 1720.79 2411.55 1713.64C2411.55 1706.48 2412.85 1700.18 2415.45 1694.73C2418.09 1689.24 2421.76 1684.97 2426.45 1681.91C2431.18 1678.82 2436.7 1677.27 2443 1677.27C2446.64 1677.27 2450.23 1677.88 2453.77 1679.09C2457.32 1680.3 2460.55 1682.27 2463.45 1685C2466.36 1687.7 2468.68 1691.27 2470.41 1695.73C2472.14 1700.18 2473 1705.67 2473 1712.18V1716.73H2419.18V1707.45H2462.09C2462.09 1703.52 2461.3 1700 2459.73 1696.91C2458.18 1693.82 2455.97 1691.38 2453.09 1689.59C2450.24 1687.8 2446.88 1686.91 2443 1686.91C2438.73 1686.91 2435.03 1687.97 2431.91 1690.09C2428.82 1692.18 2426.44 1694.91 2424.77 1698.27C2423.11 1701.64 2422.27 1705.24 2422.27 1709.09V1715.27C2422.27 1720.55 2423.18 1725.02 2425 1728.68C2426.85 1732.32 2429.41 1735.09 2432.68 1737C2435.95 1738.88 2439.76 1739.82 2444.09 1739.82C2446.91 1739.82 2449.45 1739.42 2451.73 1738.64C2454.03 1737.82 2456.02 1736.61 2457.68 1735C2459.35 1733.36 2460.64 1731.33 2461.55 1728.91L2471.91 1731.82C2470.82 1735.33 2468.98 1738.42 2466.41 1741.09C2463.83 1743.73 2460.65 1745.79 2456.86 1747.27C2453.08 1748.73 2448.82 1749.45 2444.09 1749.45Z" fill="black"/>
<rect x="4.5" y="4.5" width="3831" height="2151" stroke="black" stroke-width="9"/>
</svg>
