<svg width="564" height="220" viewBox="0 0 564 220" fill="none" xmlns="http://www.w3.org/2000/svg">
<path fill-rule="evenodd" clip-rule="evenodd" d="M70.4956 29C54.7579 29 42 41.7579 42 57.4956V85.9912V94.5398V134.434C42 165.122 66.8779 190 97.5664 190H128.911C159.6 190 184.478 165.122 184.478 134.434V94.5398V85.9912V57.4956C184.478 41.7579 171.72 29 155.982 29C140.245 29 127.487 41.7579 127.487 57.4956V78.8673C127.487 86.7361 121.108 93.115 113.239 93.115C105.37 93.115 98.9911 86.7361 98.9911 78.8673V57.4956C98.9911 41.7579 86.2332 29 70.4956 29Z" fill="white"/>
<circle cx="144.584" cy="123.035" r="14.2478" fill="black"/>
<circle cx="81.8938" cy="123.035" r="14.2478" fill="black"/>
<path d="M241.305 48.0195H338.248V66.4766H259.85V154.455H338.248V173H241.305V48.0195ZM270.396 98.7324H338.248V117.189H270.396V98.7324ZM352.398 48.0195H454.176V66.4766H412.604V173H393.971V66.4766H352.398V48.0195ZM491.881 48.0195H514.996L559.732 173H539.957L526.334 135.383H491.441L498.121 116.926H519.654L503.482 72.2773L466.92 173H447.145L491.881 48.0195Z" fill="white"/>
</svg>
